<svg version="1.1" id="Layer_1" xmlns="http://www.w3.org/2000/svg" xmlns:xlink="http://www.w3.org/1999/xlink" x="0px" y="0px"
	 width="100%" viewBox="0 0 797 419" enable-background="new 0 0 797 419" xml:space="preserve">
<path fill="transparent" opacity="1.000000" stroke="none" 
	d="
M487.000000,420.000000 
	C324.666656,420.000000 162.833328,420.000000 1.000000,420.000000 
	C1.000000,280.333344 1.000000,140.666672 1.000000,1.000000 
	C266.666656,1.000000 532.333313,1.000000 798.000000,1.000000 
	C798.000000,140.666672 798.000000,280.333344 798.000000,420.000000 
	C694.500000,420.000000 591.000000,420.000000 487.000000,420.000000 
M369.287506,291.156067 
	C365.177338,279.719696 361.292175,268.196472 356.915955,256.862823 
	C342.199982,218.750885 323.148804,183.191757 293.050415,154.816513 
	C248.435715,112.756050 195.913406,98.675095 136.295044,113.096870 
	C109.869926,119.489159 87.874084,134.003250 69.606194,154.063599 
	C68.334862,155.459671 68.253761,157.939651 67.619179,159.915588 
	C69.585320,159.270279 71.847260,159.043915 73.463310,157.902786 
	C78.764496,154.159592 83.673325,149.855286 89.013901,146.174240 
	C119.109573,125.430450 152.233932,117.017532 188.461960,123.072220 
	C219.961014,128.336563 243.973145,146.094681 263.813477,170.204926 
	C284.540222,195.392380 299.731934,223.910019 311.747498,253.964142 
	C324.829834,286.686646 336.487518,319.980347 348.613983,353.080841 
	C349.804138,356.329529 351.105957,357.772461 354.848724,357.678223 
	C366.506378,357.384735 378.179382,357.405762 389.839020,357.653717 
	C393.653931,357.734863 395.302368,356.486694 396.561249,352.870087 
	C411.618866,309.611877 426.864319,266.419037 442.045868,223.203949 
	C442.558777,221.743912 442.917450,220.229721 443.473816,218.305832 
	C442.044312,218.305832 441.399750,218.278839 440.758331,218.312073 
	C439.760834,218.363770 438.762360,218.428085 437.769623,218.535858 
	C412.297607,221.301529 396.539093,235.466766 389.463409,259.770294 
	C386.250214,270.806946 383.128174,281.870148 379.933319,292.912170 
	C378.583923,297.575806 377.153229,302.215851 375.320740,308.330750 
	C373.059937,301.850311 371.321136,296.866150 369.287506,291.156067 
M33.960762,183.507523 
	C23.720072,184.280777 13.479383,185.054016 3.201526,185.830078 
	C3.201526,243.440308 3.201526,300.306030 3.201526,357.565857 
	C8.376018,357.565857 13.185849,357.654236 17.991554,357.550842 
	C40.625710,357.063812 63.356224,357.642822 85.864105,355.681305 
	C107.372803,353.806854 126.829994,344.961823 140.038727,327.185364 
	C163.171555,296.052917 164.044662,261.805664 149.162277,227.320145 
	C139.091980,203.985214 118.460854,192.676437 94.560577,186.879822 
	C74.885323,182.107910 54.884392,182.823883 33.960762,183.507523 
M227.338470,358.965546 
	C239.115417,357.423676 249.800079,353.339905 259.132874,344.719299 
	C260.770660,350.826965 263.982025,355.166321 269.545258,357.116180 
	C280.224548,360.859131 290.690216,359.557831 300.262878,356.026917 
	C298.500275,348.415283 296.406647,341.420776 295.372894,334.273041 
	C294.521027,328.383148 294.871033,322.312439 294.782166,316.320496 
	C294.503143,297.516998 295.094757,278.654724 293.777344,259.925781 
	C292.532745,242.232254 282.674561,229.525345 265.386688,224.530762 
	C255.596680,221.702393 245.157120,220.385193 234.942322,219.939102 
	C220.063995,219.289307 205.250031,220.949600 191.767471,228.147278 
	C178.932816,234.999100 177.501343,247.704010 188.214401,257.993500 
	C201.168121,251.218292 214.728668,245.991730 229.622284,247.115463 
	C235.897720,247.588943 242.445511,249.350540 248.083817,252.123886 
	C255.039322,255.545151 257.723724,264.059784 255.409409,271.160950 
	C251.070404,271.160950 246.585266,270.984985 242.117966,271.192535 
	C225.923615,271.944885 209.897110,273.741394 195.078049,280.985596 
	C179.573578,288.564789 171.181778,300.760468 171.905197,318.401764 
	C172.653046,336.639221 181.037598,349.712952 198.395004,356.382355 
	C207.470718,359.869568 216.921173,360.021393 227.338470,358.965546 
M741.949707,247.684006 
	C737.244324,235.658997 728.290039,228.191772 716.292725,224.234024 
	C700.622620,219.064667 684.442322,218.519592 668.354004,220.948593 
	C659.589905,222.271790 650.734558,224.814804 642.662781,228.454315 
	C631.659668,233.415573 629.649658,241.566071 635.147949,252.423904 
	C636.167358,254.437012 637.432190,256.325806 638.307922,257.805756 
	C645.772644,254.936142 652.458557,251.921402 659.415466,249.792343 
	C670.754333,246.322311 682.328674,245.357666 693.835632,249.213074 
	C703.546936,252.466812 708.261475,260.232300 706.968811,271.040833 
	C704.920471,271.040833 702.798706,271.015198 700.677673,271.044830 
	C682.106628,271.304230 663.699524,272.672821 646.578003,280.779175 
	C632.590698,287.401642 623.778503,298.033600 623.065308,313.999359 
	C622.349792,330.019073 627.355591,343.639313 641.517273,352.545319 
	C653.770325,360.251007 667.342224,360.620178 681.117126,358.522766 
	C691.938904,356.874969 701.702148,352.618103 710.153870,344.724274 
	C712.040100,351.727539 716.007874,356.078979 722.233398,357.758270 
	C732.336304,360.483429 742.298462,359.608887 750.710205,356.254120 
	C749.075378,346.624725 746.542297,337.583008 746.196716,328.458435 
	C745.453064,308.822327 746.135498,289.135315 745.596558,269.486664 
	C745.403259,262.439819 743.375488,255.443344 741.949707,247.684006 
M521.471863,205.499908 
	C521.471802,237.140411 521.442261,268.780975 521.494568,300.421387 
	C521.506104,307.405823 521.562805,314.405914 522.020813,321.371002 
	C523.409180,342.483704 534.864319,355.412476 555.519958,358.677917 
	C567.646057,360.594971 579.827698,360.020233 591.450928,355.692108 
	C596.056763,353.977020 600.467590,351.393707 604.476807,348.521301 
	C608.223145,345.837189 611.079041,341.834106 609.412354,336.905396 
	C607.694885,331.826263 605.071594,327.053406 603.151245,322.822205 
	C596.357239,325.338806 590.813232,328.094666 584.945984,329.424622 
	C571.269958,332.524628 561.765808,324.464142 561.773682,310.436005 
	C561.782410,294.948883 561.785217,279.461731 561.789917,263.974609 
	C561.791138,259.859039 561.790100,255.743454 561.790100,251.138901 
	C575.557190,251.138901 588.805542,251.138901 602.237244,251.138901 
	C602.237244,241.273666 602.237244,231.914566 602.237244,222.038849 
	C588.587097,222.038849 575.347717,222.038849 561.137207,222.038849 
	C561.137207,213.734161 561.567017,205.914780 561.018860,198.164566 
	C560.446533,190.072968 555.762207,183.995178 547.851624,182.514511 
	C540.132568,181.069702 532.053772,181.430084 524.129822,181.362289 
	C523.256226,181.354813 521.651245,183.711288 521.597656,185.021011 
	C521.332214,191.504837 521.474060,198.005310 521.471863,205.499908 
M488.719727,94.114914 
	C491.037537,83.937485 492.123352,73.754158 489.040649,62.008652 
	C483.328949,83.349823 472.814270,99.171410 453.433838,108.770210 
	C451.251526,94.605560 446.800995,82.338211 437.829193,72.048607 
	C437.120667,73.407227 437.068756,74.533707 436.993958,75.658684 
	C436.293671,86.193001 435.668610,96.733284 434.841827,107.257698 
	C434.566833,110.758461 432.676819,113.157974 429.361359,114.913155 
	C418.602081,120.609077 407.405090,122.394020 395.542206,119.611671 
	C392.369659,118.867569 389.259277,117.858414 384.880798,116.620453 
	C394.688629,125.535133 405.080200,131.075119 415.760101,136.062958 
	C428.291321,141.915390 428.389374,141.787659 423.714172,154.941284 
	C416.769592,174.479706 406.394928,192.250595 395.661865,210.101761 
	C397.989471,209.069458 400.097168,207.740768 401.966888,206.134964 
	C417.926483,192.427856 432.790863,177.638977 445.438629,160.781570 
	C448.032288,157.324600 450.922394,155.966248 455.065613,155.937302 
	C474.046997,155.804642 490.845093,160.600189 503.083832,176.485199 
	C497.924225,155.854401 486.257141,140.381729 466.863708,130.555557 
	C476.921387,120.186096 484.814423,108.801811 488.719727,94.114914 
M479.564240,231.931931 
	C472.243469,225.756042 463.953552,221.761871 454.040771,220.015869 
	C454.040771,223.373337 454.040649,226.019394 454.040771,228.665466 
	C454.042236,264.296967 454.015289,299.928497 454.066071,335.559937 
	C454.078125,344.029114 456.307251,351.599457 464.873474,355.247925 
	C474.218353,359.228027 484.019287,357.169708 493.947479,357.484039 
	C493.947479,355.313751 493.947723,353.991547 493.947449,352.669342 
	C493.941711,322.865448 493.952545,293.061493 493.922058,263.257629 
	C493.909454,250.932281 489.318115,240.613617 479.564240,231.931931 
M789.353333,358.072479 
	C790.042664,357.610168 790.760559,357.184906 791.416687,356.679535 
	C796.384888,352.853119 798.385376,346.560394 796.528687,340.662628 
	C794.671448,334.763458 789.513672,330.930084 783.042297,330.639465 
	C776.749695,330.356842 771.158875,333.830963 768.897766,339.674896 
	C766.726318,345.287201 767.558044,350.635651 771.703003,354.963593 
	C776.423462,359.892365 782.272583,360.852875 789.353333,358.072479 
z"/>
<path fill="#0477B7" opacity="1.000000" stroke="none" 
	d="
M369.434906,291.519043 
	C371.321136,296.866150 373.059937,301.850311 375.320740,308.330750 
	C377.153229,302.215851 378.583923,297.575806 379.933319,292.912170 
	C383.128174,281.870148 386.250214,270.806946 389.463409,259.770294 
	C396.539093,235.466766 412.297607,221.301529 437.769623,218.535858 
	C438.762360,218.428085 439.760834,218.363770 440.758331,218.312073 
	C441.399750,218.278839 442.044312,218.305832 443.473816,218.305832 
	C442.917450,220.229721 442.558777,221.743912 442.045868,223.203949 
	C426.864319,266.419037 411.618866,309.611877 396.561249,352.870087 
	C395.302368,356.486694 393.653931,357.734863 389.839020,357.653717 
	C378.179382,357.405762 366.506378,357.384735 354.848724,357.678223 
	C351.105957,357.772461 349.804138,356.329529 348.613983,353.080841 
	C336.487518,319.980347 324.829834,286.686646 311.747498,253.964142 
	C299.731934,223.910019 284.540222,195.392380 263.813477,170.204926 
	C243.973145,146.094681 219.961014,128.336563 188.461960,123.072220 
	C152.233932,117.017532 119.109573,125.430450 89.013901,146.174240 
	C83.673325,149.855286 78.764496,154.159592 73.463310,157.902786 
	C71.847260,159.043915 69.585320,159.270279 67.619171,159.915588 
	C68.253761,157.939651 68.334862,155.459671 69.606194,154.063599 
	C87.874084,134.003250 109.869926,119.489159 136.295044,113.096870 
	C195.913406,98.675095 248.435715,112.756050 293.050415,154.816513 
	C323.148804,183.191757 342.199982,218.750885 356.915955,256.862823 
	C361.292175,268.196472 365.177338,279.719696 369.434906,291.519043 
z"/>
<path fill="#0377B6" opacity="1.000000" stroke="none" 
	d="
M34.427391,183.460373 
	C54.884392,182.823883 74.885323,182.107910 94.560577,186.879822 
	C118.460854,192.676437 139.091980,203.985214 149.162277,227.320145 
	C164.044662,261.805664 163.171555,296.052917 140.038727,327.185364 
	C126.829994,344.961823 107.372803,353.806854 85.864105,355.681305 
	C63.356224,357.642822 40.625710,357.063812 17.991554,357.550842 
	C13.185849,357.654236 8.376018,357.565857 3.201526,357.565857 
	C3.201526,300.306030 3.201526,243.440308 3.201526,185.830078 
	C13.479383,185.054016 23.720072,184.280777 34.427391,183.460373 
M54.517250,330.039368 
	C60.660339,329.709320 66.840530,329.699005 72.939789,328.991241 
	C93.980209,326.549713 108.997231,313.924896 114.327087,293.857483 
	C118.599030,277.773193 118.575951,261.527435 114.008286,245.470123 
	C108.829033,227.262863 96.728561,215.892303 78.198547,212.643265 
	C68.466583,210.936874 58.333408,211.544708 48.385250,211.032822 
	C44.325737,210.823944 43.193916,212.467072 43.213810,216.590469 
	C43.387436,252.573517 43.301559,288.557800 43.292824,324.541718 
	C43.292397,326.292908 43.292767,328.044098 43.292767,330.039398 
	C47.217503,330.039398 50.373455,330.039398 54.517250,330.039368 
z"/>
<path fill="#0477B7" opacity="1.000000" stroke="none" 
	d="
M226.894409,358.993408 
	C216.921173,360.021393 207.470718,359.869568 198.395004,356.382355 
	C181.037598,349.712952 172.653046,336.639221 171.905197,318.401764 
	C171.181778,300.760468 179.573578,288.564789 195.078049,280.985596 
	C209.897110,273.741394 225.923615,271.944885 242.117966,271.192535 
	C246.585266,270.984985 251.070404,271.160950 255.409409,271.160950 
	C257.723724,264.059784 255.039322,255.545151 248.083817,252.123886 
	C242.445511,249.350540 235.897720,247.588943 229.622284,247.115463 
	C214.728668,245.991730 201.168121,251.218292 188.214401,257.993500 
	C177.501343,247.704010 178.932816,234.999100 191.767471,228.147278 
	C205.250031,220.949600 220.063995,219.289307 234.942322,219.939102 
	C245.157120,220.385193 255.596680,221.702393 265.386688,224.530762 
	C282.674561,229.525345 292.532745,242.232254 293.777344,259.925781 
	C295.094757,278.654724 294.503143,297.516998 294.782166,316.320496 
	C294.871033,322.312439 294.521027,328.383148 295.372894,334.273041 
	C296.406647,341.420776 298.500275,348.415283 300.262878,356.026917 
	C290.690216,359.557831 280.224548,360.859131 269.545258,357.116180 
	C263.982025,355.166321 260.770660,350.826965 259.132874,344.719299 
	C249.800079,353.339905 239.115417,357.423676 226.894409,358.993408 
M220.660507,332.118683 
	C232.744125,336.407898 243.573074,333.840393 253.238098,325.857605 
	C254.790955,324.575043 256.461182,322.361053 256.522461,320.525696 
	C256.847137,310.807281 256.674927,301.072296 256.674927,291.111450 
	C243.532913,291.159485 230.905746,291.686371 219.579315,298.398895 
	C205.731018,306.605957 205.988754,323.891907 220.660507,332.118683 
z"/>
<path fill="#0477B7" opacity="1.000000" stroke="none" 
	d="
M742.067322,248.053955 
	C743.375488,255.443344 745.403259,262.439819 745.596558,269.486664 
	C746.135498,289.135315 745.453064,308.822327 746.196716,328.458435 
	C746.542297,337.583008 749.075378,346.624725 750.710205,356.254120 
	C742.298462,359.608887 732.336304,360.483429 722.233398,357.758270 
	C716.007874,356.078979 712.040100,351.727539 710.153870,344.724274 
	C701.702148,352.618103 691.938904,356.874969 681.117126,358.522766 
	C667.342224,360.620178 653.770325,360.251007 641.517273,352.545319 
	C627.355591,343.639313 622.349792,330.019073 623.065308,313.999359 
	C623.778503,298.033600 632.590698,287.401642 646.578003,280.779175 
	C663.699524,272.672821 682.106628,271.304230 700.677673,271.044830 
	C702.798706,271.015198 704.920471,271.040833 706.968811,271.040833 
	C708.261475,260.232300 703.546936,252.466812 693.835632,249.213074 
	C682.328674,245.357666 670.754333,246.322311 659.415466,249.792343 
	C652.458557,251.921402 645.772644,254.936142 638.307922,257.805756 
	C637.432190,256.325806 636.167358,254.437012 635.147949,252.423904 
	C629.649658,241.566071 631.659668,233.415573 642.662781,228.454315 
	C650.734558,224.814804 659.589905,222.271790 668.354004,220.948593 
	C684.442322,218.519592 700.622620,219.064667 716.292725,224.234024 
	C728.290039,228.191772 737.244324,235.658997 742.067322,248.053955 
M708.084717,311.430237 
	C708.084717,304.824402 708.084717,298.218536 708.084717,290.598114 
	C700.372192,291.356537 693.123230,291.261627 686.326355,292.967926 
	C679.706970,294.629608 673.042786,297.348480 667.324890,301.038788 
	C660.850891,305.217133 659.473145,312.352417 661.230774,319.762177 
	C662.920654,326.886505 667.562622,331.473297 674.653381,333.020508 
	C678.491272,333.858002 682.598022,334.186432 686.506226,333.849060 
	C700.696472,332.624237 708.120789,325.055206 708.084717,311.430237 
z"/>
<path fill="#0377B7" opacity="1.000000" stroke="none" 
	d="
M521.472046,204.999908 
	C521.474060,198.005310 521.332214,191.504837 521.597656,185.021011 
	C521.651245,183.711288 523.256226,181.354813 524.129822,181.362289 
	C532.053772,181.430084 540.132568,181.069702 547.851624,182.514511 
	C555.762207,183.995178 560.446533,190.072968 561.018860,198.164566 
	C561.567017,205.914780 561.137207,213.734161 561.137207,222.038849 
	C575.347717,222.038849 588.587097,222.038849 602.237244,222.038849 
	C602.237244,231.914566 602.237244,241.273666 602.237244,251.138901 
	C588.805542,251.138901 575.557190,251.138901 561.790100,251.138901 
	C561.790100,255.743454 561.791138,259.859039 561.789917,263.974609 
	C561.785217,279.461731 561.782410,294.948883 561.773682,310.436005 
	C561.765808,324.464142 571.269958,332.524628 584.945984,329.424622 
	C590.813232,328.094666 596.357239,325.338806 603.151245,322.822205 
	C605.071594,327.053406 607.694885,331.826263 609.412354,336.905396 
	C611.079041,341.834106 608.223145,345.837189 604.476807,348.521301 
	C600.467590,351.393707 596.056763,353.977020 591.450928,355.692108 
	C579.827698,360.020233 567.646057,360.594971 555.519958,358.677917 
	C534.864319,355.412476 523.409180,342.483704 522.020813,321.371002 
	C521.562805,314.405914 521.506104,307.405823 521.494568,300.421387 
	C521.442261,268.780975 521.471802,237.140411 521.472046,204.999908 
z"/>
<path fill="#FBB817" opacity="1.000000" stroke="none" 
	d="
M488.569031,94.496902 
	C484.814423,108.801811 476.921387,120.186096 466.863708,130.555557 
	C486.257141,140.381729 497.924225,155.854401 503.083832,176.485199 
	C490.845093,160.600189 474.046997,155.804642 455.065613,155.937302 
	C450.922394,155.966248 448.032288,157.324600 445.438629,160.781570 
	C432.790863,177.638977 417.926483,192.427856 401.966888,206.134964 
	C400.097168,207.740768 397.989471,209.069458 395.661865,210.101761 
	C406.394928,192.250595 416.769592,174.479706 423.714172,154.941284 
	C428.389374,141.787659 428.291321,141.915390 415.760101,136.062958 
	C405.080200,131.075119 394.688629,125.535133 384.880798,116.620453 
	C389.259277,117.858414 392.369659,118.867569 395.542206,119.611671 
	C407.405090,122.394020 418.602081,120.609077 429.361359,114.913155 
	C432.676819,113.157974 434.566833,110.758461 434.841827,107.257698 
	C435.668610,96.733284 436.293671,86.193001 436.993958,75.658684 
	C437.068756,74.533707 437.120667,73.407227 437.829193,72.048607 
	C446.800995,82.338211 451.251526,94.605560 453.433838,108.770210 
	C472.814270,99.171410 483.328949,83.349823 489.040649,62.008652 
	C492.123352,73.754158 491.037537,83.937485 488.569031,94.496902 
z"/>
<path fill="#0477B7" opacity="1.000000" stroke="none" 
	d="
M479.845154,232.150452 
	C489.318115,240.613617 493.909454,250.932281 493.922058,263.257629 
	C493.952545,293.061493 493.941711,322.865448 493.947449,352.669342 
	C493.947723,353.991547 493.947479,355.313751 493.947479,357.484039 
	C484.019287,357.169708 474.218353,359.228027 464.873474,355.247925 
	C456.307251,351.599457 454.078125,344.029114 454.066071,335.559937 
	C454.015289,299.928497 454.042236,264.296967 454.040771,228.665466 
	C454.040649,226.019394 454.040771,223.373337 454.040771,220.015869 
	C463.953552,221.761871 472.243469,225.756042 479.845154,232.150452 
z"/>

<path fill="transparent" opacity="1.000000" stroke="none" 
	d="
M54.023331,330.039368 
	C50.373455,330.039398 47.217503,330.039398 43.292767,330.039398 
	C43.292767,328.044098 43.292397,326.292908 43.292824,324.541718 
	C43.301559,288.557800 43.387436,252.573517 43.213810,216.590469 
	C43.193916,212.467072 44.325737,210.823944 48.385250,211.032822 
	C58.333408,211.544708 68.466583,210.936874 78.198547,212.643265 
	C96.728561,215.892303 108.829033,227.262863 114.008286,245.470123 
	C118.575951,261.527435 118.599030,277.773193 114.327087,293.857483 
	C108.997231,313.924896 93.980209,326.549713 72.939789,328.991241 
	C66.840530,329.699005 60.660339,329.709320 54.023331,330.039368 
z"/>
<path fill="transparent" opacity="1.000000" stroke="none" 
	d="
M220.299377,331.980438 
	C205.988754,323.891907 205.731018,306.605957 219.579315,298.398895 
	C230.905746,291.686371 243.532913,291.159485 256.674927,291.111450 
	C256.674927,301.072296 256.847137,310.807281 256.522461,320.525696 
	C256.461182,322.361053 254.790955,324.575043 253.238098,325.857605 
	C243.573074,333.840393 232.744125,336.407898 220.299377,331.980438 
z"/>
<path fill="transparent" opacity="1.000000" stroke="none" 
	d="
M708.084412,311.916107 
	C708.120789,325.055206 700.696472,332.624237 686.506226,333.849060 
	C682.598022,334.186432 678.491272,333.858002 674.653381,333.020508 
	C667.562622,331.473297 662.920654,326.886505 661.230774,319.762177 
	C659.473145,312.352417 660.850891,305.217133 667.324890,301.038788 
	C673.042786,297.348480 679.706970,294.629608 686.326355,292.967926 
	C693.123230,291.261627 700.372192,291.356537 708.084717,290.598114 
	C708.084717,298.218536 708.084717,304.824402 708.084412,311.916107 
z"/>

</svg>